<svg xmlns="http://www.w3.org/2000/svg" xmlns:xlink="http://www.w3.org/1999/xlink" width="120" height="120" viewBox="0 0 120 120">
  <defs>
    <clipPath id="clip-Caspio-favicon_120-white">
      <rect width="120" height="120"/>
    </clipPath>
  </defs>
  <g id="Caspio-favicon_120-white" clip-path="url(#clip-Caspio-favicon_120-white)">
    <g id="Group_46270" data-name="Group 46270" transform="translate(17850.318 24528.871)">
      <g id="Group_46269" data-name="Group 46269" transform="translate(-17819.818 -24525.318)">
        <path id="Path_57224" data-name="Path 57224" d="M2.255,0H18.266a2.255,2.255,0,0,1,2.255,2.255V18.266a2.255,2.255,0,0,1-2.255,2.255H2.255A2.255,2.255,0,0,1,0,18.266V2.255A2.255,2.255,0,0,1,2.255,0Z" transform="translate(11.303 0) rotate(20)" fill="#b2d0e1"/>
        <path id="Path_57223" data-name="Path 57223" d="M2.255,0H18.266a2.255,2.255,0,0,1,2.255,2.255V18.266a2.255,2.255,0,0,1-2.255,2.255H2.255A2.255,2.255,0,0,1,0,18.266V2.255A2.255,2.255,0,0,1,2.255,0Z" transform="translate(39.717 26.835) rotate(20)" fill="#72aac9"/>
        <path id="Path_57222" data-name="Path 57222" d="M2.255,0H18.266a2.255,2.255,0,0,1,2.255,2.255V18.266a2.255,2.255,0,0,1-2.255,2.255H2.255A2.255,2.255,0,0,1,0,18.266V2.255A2.255,2.255,0,0,1,2.255,0Z" transform="translate(8.823 41.267) rotate(20)" fill="#72aac9"/>
        <path id="Path_57219" data-name="Path 57219" d="M2.255,0H18.266a2.255,2.255,0,0,1,2.255,2.255V18.266a2.255,2.255,0,0,1-2.255,2.255H2.255A2.255,2.255,0,0,1,0,18.266V2.255A2.255,2.255,0,0,1,2.255,0Z" transform="translate(37.236 64.269) rotate(20)" fill="#3383b1"/>
        <path id="Path_57221" data-name="Path 57221" d="M2.255,0H18.266a2.255,2.255,0,0,1,2.255,2.255V18.266a2.255,2.255,0,0,1-2.255,2.255H2.255A2.255,2.255,0,0,1,0,18.266V2.255A2.255,2.255,0,0,1,2.255,0Z" transform="translate(7.019 78.476) rotate(20)" fill="#3383b1"/>
        <path id="Path_57220" data-name="Path 57220" d="M2.255,0H18.266a2.255,2.255,0,0,1,2.255,2.255V18.266a2.255,2.255,0,0,1-2.255,2.255H2.255A2.255,2.255,0,0,1,0,18.266V2.255A2.255,2.255,0,0,1,2.255,0Z" transform="translate(29.569 86.594) rotate(20)" fill="#00649e"/>
      </g>
    </g>
  </g>
</svg>
